<?xml version="1.0" encoding="UTF-8"?>
<svg xmlns="http://www.w3.org/2000/svg" xmlns:se="https://standardebooks.org/vocab/1.0" version="1.1" viewBox="0 0 1400 440" se:generated-from="6e042f5b6c99beaddc07060de0e319b67535992b">
	<path d="M 152.61622,68.245613 170.9554,68.245613 170.9554,130 188.54604,130 188.54604,68.245613 206.88523,68.245613 206.88523,52.807016 152.61622,52.807016 152.61622,68.245613 Z"/>
	<path d="M 235.81066,99.029239 260.69955,99.029239 260.69955,130 278.2902,130 278.2902,52.807016 260.69955,52.807016 260.69955,83.590642 235.81066,83.590642 235.81066,52.807016 218.22002,52.807016 218.22002,130 235.81066,130 235.81066,99.029239 Z"/>
	<path d="M 338.6557,52.807016 294.49195,52.807016 294.49195,130 338.6557,130 338.6557,114.5614 312.0826,114.5614 312.0826,99.029239 337.53289,99.029239 337.53289,83.590642 312.0826,83.590642 312.0826,68.245613 338.6557,68.245613 338.6557,52.807016 Z"/>
	<path d="M 401.94371,52.807016 384.35307,52.807016 384.35307,130 401.94371,130 401.94371,52.807016 Z"/>
	<path d="M 482.04019,130 499.63083,130 492.70686,52.807016 473.9934,52.807016 456.8706,97.345029 439.74779,52.807016 421.03434,52.807016 414.11036,130 431.70101,130 435.35013,84.245613 435.81797,84.245613 451.63083,129.53216 462.11036,129.53216 477.92323,84.245613 478.39107,84.245613 482.04019,130 Z"/>
	<path d="M 511.67764,52.807016 511.67764,130 529.26828,130 529.26828,101.36842 539.84138,101.36842 C 554.90571,101.36842 566.22735,92.479532 566.22735,76.573098 566.22735,60.573098 554.90571,52.807016 539.84138,52.807016 L 511.67764,52.807016 Z M 529.26828,87.333333 529.26828,66.842104 534.22735,66.842104 C 541.15132,66.842104 547.70103,69.181285 547.70103,77.134502 547.70103,84.994151 541.15132,87.333333 534.22735,87.333333 L 529.26828,87.333333 Z"/>
	<path d="M 575.53291,91.356724 C 575.53291,113.90643 591.62648,131.40351 614.45689,131.40351 636.63233,131.40351 653.2873,113.90643 653.2873,91.356724 653.2873,68.807016 635.88379,51.403507 614.45689,51.403507 593.21712,51.403507 575.53291,68.807016 575.53291,91.356724 Z M 594.52706,91.356724 C 594.52706,79.847952 600.88964,68.33918 614.45689,68.33918 628.11771,68.33918 634.29315,79.847952 634.29315,91.356724 634.29315,102.8655 628.49198,114.37427 614.45689,114.37427 600.04753,114.37427 594.52706,102.8655 594.52706,91.356724 Z"/>
	<path d="M 666.04898,52.807016 666.04898,130 683.63962,130 683.63962,99.497075 707.21857,130 729.58114,130 703.00804,98.093567 C 712.45833,95.099415 718.82091,87.333333 718.82091,75.730993 718.82091,60.573098 707.96711,52.807016 693.65132,52.807016 L 666.04898,52.807016 Z M 683.63962,87.052631 683.63962,66.842104 685.6981,66.842104 C 692.34138,66.842104 700.29459,67.30994 700.29459,76.947367 700.29459,86.584795 692.34138,87.052631 685.6981,87.052631 L 683.63962,87.052631 Z"/>
	<path d="M 729.59724,68.245613 747.93642,68.245613 747.93642,130 765.52706,130 765.52706,68.245613 783.86624,68.245613 783.86624,52.807016 729.59724,52.807016 729.59724,68.245613 Z"/>
	<path d="M 829.83697,52.807016 813.55627,52.807016 782.39837,130 801.29896,130 807.00656,114.5614 836.38668,114.5614 842.09428,130 860.99486,130 829.83697,52.807016 Z M 830.39837,99.122806 812.99486,99.122806 821.60305,76.666666 821.79019,76.666666 830.39837,99.122806 Z"/>
	<path d="M 886.5051,82.093566 886.69223,82.093566 917.38229,130 934.97294,130 934.97294,52.807016 917.38229,52.807016 917.38229,100.71345 917.19516,100.71345 886.5051,52.807016 868.91446,52.807016 868.91446,130 886.5051,130 886.5051,82.093566 Z"/>
	<path d="M 989.36914,114.09357 C 971.68493,114.09357 963.91885,101.74269 963.91885,91.356724 963.91885,81.064327 971.68493,68.713449 989.36914,68.713449 998.3516,68.713449 1004.527,73.485379 1004.527,73.485379 L 1012.0124,58.514619 C 1012.0124,58.514619 1003.4042,51.403507 986.65569,51.403507 964.76095,51.403507 944.83113,69.36842 944.83113,91.543859 944.83113,113.62573 964.85452,131.40351 986.65569,131.40351 1003.4042,131.40351 1012.0124,124.2924 1012.0124,124.2924 L 1004.527,109.32164 C 1004.527,109.32164 998.3516,114.09357 989.36914,114.09357 Z"/>
	<path d="M 1067.9978,52.807016 1023.8341,52.807016 1023.8341,130 1067.9978,130 1067.9978,114.5614 1041.4247,114.5614 1041.4247,99.029239 1066.875,99.029239 1066.875,83.590642 1041.4247,83.590642 1041.4247,68.245613 1067.9978,68.245613 1067.9978,52.807016 Z"/>
	<path d="M 1110.2332,91.356724 C 1110.2332,113.90643 1126.3267,131.40351 1149.1571,131.40351 1171.3326,131.40351 1187.9876,113.90643 1187.9876,91.356724 1187.9876,68.807016 1170.584,51.403507 1149.1571,51.403507 1127.9174,51.403507 1110.2332,68.807016 1110.2332,91.356724 Z M 1129.2273,91.356724 C 1129.2273,79.847952 1135.5899,68.33918 1149.1571,68.33918 1162.818,68.33918 1168.9934,79.847952 1168.9934,91.356724 1168.9934,102.8655 1163.1922,114.37427 1149.1571,114.37427 1134.7478,114.37427 1129.2273,102.8655 1129.2273,91.356724 Z"/>
	<path d="M 1245.3809,52.807016 1200.7493,52.807016 1200.7493,130 1218.3399,130 1218.3399,99.029239 1243.3224,99.029239 1243.3224,83.590642 1218.3399,83.590642 1218.3399,68.245613 1245.3809,68.245613 1245.3809,52.807016 Z"/>
	<path d="M 292.29897,152.80702 292.29897,230 321.58552,230 C 337.58552,230 346.84868,221.20468 346.84868,208.47953 346.84868,196.03509 340.01827,190.70175 330.38084,189.01754 336.93055,185.64912 340.01827,179.56725 340.01827,172.45614 340.01827,157.76608 329.53874,152.80702 316.25219,152.80702 L 292.29897,152.80702 Z M 309.88961,183.02924 309.88961,166.37427 311.29312,166.37427 C 318.96564,166.37427 322.98903,168.71345 322.98903,174.23392 322.98903,180.69006 318.87207,183.02924 311.29312,183.02924 L 309.88961,183.02924 Z M 309.88961,216.43275 309.88961,198.18713 315.41008,198.18713 C 323.73757,198.18713 328.32236,200.71345 328.32236,207.82456 328.32236,213.90643 323.73757,216.43275 315.41008,216.43275 L 309.88961,216.43275 Z"/>
	<path d="M 403.77997,152.80702 359.61622,152.80702 359.61622,230 403.77997,230 403.77997,214.5614 377.20687,214.5614 377.20687,199.02924 402.65716,199.02924 402.65716,183.59064 377.20687,183.59064 377.20687,168.24561 403.77997,168.24561 403.77997,152.80702 Z"/>
	<path d="M 436.48318,152.80702 418.89254,152.80702 418.89254,230 436.48318,230 436.48318,152.80702 Z"/>
	<path d="M 470.35745,182.09357 470.54458,182.09357 501.23464,230 518.82529,230 518.82529,152.80702 501.23464,152.80702 501.23464,200.71345 501.04751,200.71345 470.35745,152.80702 452.7668,152.80702 452.7668,230 470.35745,230 470.35745,182.09357 Z"/>
	<path d="M 604.87062,186.77193 569.22149,186.77193 569.22149,200.33918 586.99927,200.33918 C 586.99927,209.78947 578.67179,215.21637 570.25073,215.21637 559.39693,215.21637 550.60161,204.54971 550.60161,191.45029 550.60161,178.07017 559.39693,167.30994 570.25073,167.30994 577.08114,167.30994 582.97588,170.02339 587.46711,177.22807 L 598.97588,164.59649 C 592.23904,156.45614 582.78875,151.40351 569.22149,151.40351 547.51389,151.40351 531.60746,169.27485 531.60746,191.45029 531.60746,213.53216 548.44956,231.40351 569.22149,231.40351 584.37939,231.40351 600.66009,223.07602 604.87062,203.52047 L 604.87062,186.77193 Z"/>
	<path d="M 692.30335,152.80702 648.13961,152.80702 648.13961,230 692.30335,230 692.30335,214.5614 665.73025,214.5614 665.73025,199.02924 691.18054,199.02924 691.18054,183.59064 665.73025,183.59064 665.73025,168.24561 692.30335,168.24561 692.30335,152.80702 Z"/>
	<path d="M 747.16887,152.80702 730.88817,152.80702 699.73027,230 718.63086,230 724.33846,214.5614 753.71858,214.5614 759.42618,230 778.32677,230 747.16887,152.80702 Z M 747.73027,199.12281 730.32677,199.12281 738.93495,176.66667 739.12209,176.66667 747.73027,199.12281 Z"/>
	<path d="M 786.24636,152.80702 786.24636,230 803.837,230 803.837,199.49708 827.41595,230 849.77852,230 823.20542,198.09357 C 832.65572,195.09941 839.01829,187.33333 839.01829,175.73099 839.01829,160.5731 828.16449,152.80702 813.8487,152.80702 L 786.24636,152.80702 Z M 803.837,187.05263 803.837,166.8421 805.89548,166.8421 C 812.53876,166.8421 820.49197,167.30994 820.49197,176.94737 820.49197,186.58479 812.53876,187.05263 805.89548,187.05263 L 803.837,187.05263 Z"/>
	<path d="M 875.90573,182.09357 876.09286,182.09357 906.78292,230 924.37356,230 924.37356,152.80702 906.78292,152.80702 906.78292,200.71345 906.59579,200.71345 875.90573,152.80702 858.31508,152.80702 858.31508,230 875.90573,230 875.90573,182.09357 Z"/>
	<path d="M 984.78144,152.80702 940.6177,152.80702 940.6177,230 984.78144,230 984.78144,214.5614 958.20834,214.5614 958.20834,199.02924 983.65863,199.02924 983.65863,183.59064 958.20834,183.59064 958.20834,168.24561 984.78144,168.24561 984.78144,152.80702 Z"/>
	<path d="M 1028.3384,151.40351 C 1015.894,151.40351 1003.1689,160.5731 1003.1689,174.98246 1003.1689,183.02924 1008.5958,190.23392 1017.8589,194.81871 1027.0285,199.40351 1035.2624,201.92982 1035.2624,207.54386 1035.2624,214.74854 1027.9642,215.12281 1024.1279,215.12281 1015.5197,215.12281 1005.2273,206.42105 1005.2273,206.42105 L 996.43201,221.20468 C 996.43201,221.20468 1007.3794,231.40351 1025.4379,231.40351 1040.5022,231.40351 1054.5373,224.94737 1054.5373,206.51462 1054.5373,196.40936 1045.087,189.11111 1036.4788,185.46199 1027.6835,181.7193 1020.3852,178.63158 1020.3852,174.32748 1020.3852,170.11696 1023.5665,167.40351 1029.5548,167.40351 1037.508,167.40351 1045.1806,172.73684 1045.1806,172.73684 L 1052.2917,158.70175 C 1052.2917,158.70175 1042.3735,151.40351 1028.3384,151.40351 Z"/>
	<path d="M 1058.3253,168.24561 1076.6645,168.24561 1076.6645,230 1094.2551,230 1094.2551,168.24561 1112.5943,168.24561 1112.5943,152.80702 1058.3253,152.80702 1058.3253,168.24561 Z"/>
	<path d="M 421.4057,361.01754 C 421.4057,377.92982 433.47588,391.05263 450.59869,391.05263 467.23027,391.05263 479.72149,377.92982 479.72149,361.01754 479.72149,344.10526 466.66886,331.05263 450.59869,331.05263 434.66886,331.05263 421.4057,344.10526 421.4057,361.01754 Z M 435.65132,361.01754 C 435.65132,352.38597 440.42325,343.75439 450.59869,343.75439 460.8443,343.75439 465.47588,352.38597 465.47588,361.01754 465.47588,369.64912 461.125,378.2807 450.59869,378.2807 439.79167,378.2807 435.65132,369.64912 435.65132,361.01754 Z"/>
	<path d="M 511.8761,331.05263 C 502.54277,331.05263 492.99891,337.92983 492.99891,348.73684 492.99891,354.77193 497.06908,360.17544 504.01645,363.61404 510.89365,367.05263 517.06908,368.94737 517.06908,373.15789 517.06908,378.5614 511.5954,378.84211 508.71821,378.84211 502.26207,378.84211 494.54277,372.31579 494.54277,372.31579 L 487.94628,383.40351 C 487.94628,383.40351 496.1568,391.05263 509.70066,391.05263 520.99891,391.05263 531.52522,386.21053 531.52522,372.38597 531.52522,364.80702 524.43751,359.33333 517.98136,356.59649 511.38487,353.78947 505.91119,351.47368 505.91119,348.24561 505.91119,345.08772 508.29715,343.05263 512.78838,343.05263 518.75329,343.05263 524.50768,347.05263 524.50768,347.05263 L 529.84101,336.52632 C 529.84101,336.52632 522.40242,331.05263 511.8761,331.05263 Z"/>
	<path d="M 571.30592,378.07018 C 558.04276,378.07018 552.2182,368.80702 552.2182,361.01754 552.2182,353.29825 558.04276,344.03509 571.30592,344.03509 578.04276,344.03509 582.67434,347.61404 582.67434,347.61404 L 588.28837,336.38597 C 588.28837,336.38597 581.83223,331.05263 569.27083,331.05263 552.84978,331.05263 537.90241,344.52632 537.90241,361.1579 537.90241,377.7193 552.91995,391.05263 569.27083,391.05263 581.83223,391.05263 588.28837,385.7193 588.28837,385.7193 L 582.67434,374.49123 C 582.67434,374.49123 578.04276,378.07018 571.30592,378.07018 Z"/>
	<path d="M 627.80811,332.10526 615.59758,332.10526 592.22916,390 606.4046,390 610.6853,378.42105 632.72039,378.42105 637.00109,390 651.17653,390 627.80811,332.10526 Z M 628.22916,366.84211 615.17653,366.84211 621.63267,350 621.77302,350 628.22916,366.84211 Z"/>
	<path d="M 658.36622,332.10526 658.36622,390 671.55921,390 671.55921,367.12281 689.24342,390 706.01535,390 686.08552,366.07018 C 693.17324,363.82456 697.94517,358 697.94517,349.29825 697.94517,337.92983 689.80482,332.10526 679.06798,332.10526 L 658.36622,332.10526 Z M 671.55921,357.78947 671.55921,342.63158 673.10307,342.63158 C 678.08552,342.63158 684.05043,342.98246 684.05043,350.21053 684.05043,357.4386 678.08552,357.78947 673.10307,357.78947 L 671.55921,357.78947 Z"/>
	<path d="M 776.38376,390 790.98025,390 807.47148,332.10526 792.87499,332.10526 782.98025,371.82456 782.62937,371.82456 772.10306,332.10526 762.13814,332.10526 751.61183,371.82456 751.26095,371.82456 741.36621,332.10526 726.69955,332.10526 743.19078,390 757.85744,390 767.1206,357.50877 776.38376,390 Z"/>
	<path d="M 828.82894,332.10526 815.63595,332.10526 815.63595,390 828.82894,390 828.82894,332.10526 Z"/>
	<path d="M 855.48464,332.10526 842.29165,332.10526 842.29165,390 875.41446,390 875.41446,378.42105 855.48464,378.42105 855.48464,332.10526 Z"/>
	<path d="M 886.9024,332.10526 886.9024,390 903.67433,390 C 919.60416,390 932.86731,377.92982 932.86731,361.01754 932.86731,344.17544 919.53398,332.10526 903.67433,332.10526 L 886.9024,332.10526 Z M 900.09539,378.21053 900.09539,343.89474 902.13047,343.89474 C 911.95503,343.89474 918.6217,351.40351 918.6217,361.08772 918.55153,370.77193 911.88486,378.21053 902.13047,378.21053 L 900.09539,378.21053 Z"/>
	<path d="M 976.83441,332.10526 943.71161,332.10526 943.71161,390 976.83441,390 976.83441,378.42105 956.90459,378.42105 956.90459,366.77193 975.99231,366.77193 975.99231,355.19298 956.90459,355.19298 956.90459,343.68421 976.83441,343.68421 976.83441,332.10526 Z"/>
</svg>
